<mxfile host="65bd71144e" scale="2" border="0">
    <diagram id="BnsNrFVr5Wd3XkJ8FpZ6" name="Page-1">
        <mxGraphModel dx="904" dy="742" grid="1" gridSize="10" guides="1" tooltips="1" connect="1" arrows="1" fold="1" page="1" pageScale="1" pageWidth="1100" pageHeight="850" math="0" shadow="0">
            <root>
                <mxCell id="0"/>
                <mxCell id="1" parent="0"/>
                <mxCell id="2" value="μ&lt;span style=&quot;font-size: 8.33333px;&quot;&gt;&lt;sub&gt;n&lt;/sub&gt;&lt;/span&gt;" style="whiteSpace=wrap;html=1;aspect=fixed;fillColor=#e1d5e7;strokeColor=#9673a6;fontColor=#000000;" parent="1" vertex="1">
                    <mxGeometry x="504.88" y="221" width="20" height="20" as="geometry"/>
                </mxCell>
                <mxCell id="3" value="σ&lt;span style=&quot;font-size: 8.33333px;&quot;&gt;&lt;sub&gt;n&lt;/sub&gt;&lt;/span&gt;" style="whiteSpace=wrap;html=1;aspect=fixed;fillColor=#e1d5e7;strokeColor=#9673a6;fontColor=#000000;" parent="1" vertex="1">
                    <mxGeometry x="534.88" y="221" width="20" height="20" as="geometry"/>
                </mxCell>
                <mxCell id="5" value="&lt;font color=&quot;#000000&quot;&gt;z&lt;sub&gt;N&lt;/sub&gt;&lt;/font&gt;" style="whiteSpace=wrap;html=1;aspect=fixed;fillColor=#d5e8d4;strokeColor=#82b366;" parent="1" vertex="1">
                    <mxGeometry x="630" y="290.00000000000006" width="20" height="20" as="geometry"/>
                </mxCell>
                <mxCell id="7" value="" style="endArrow=classic;html=1;" parent="1" edge="1">
                    <mxGeometry width="50" height="50" relative="1" as="geometry">
                        <mxPoint x="660" y="299.83000000000004" as="sourcePoint"/>
                        <mxPoint x="680" y="299.83000000000004" as="targetPoint"/>
                    </mxGeometry>
                </mxCell>
                <mxCell id="29" value="Foward Kernel" style="rounded=0;whiteSpace=wrap;html=1;" parent="1" vertex="1">
                    <mxGeometry x="503.32" y="280.54" width="51.12" height="40" as="geometry"/>
                </mxCell>
                <mxCell id="30" value="" style="endArrow=classic;html=1;" parent="1" edge="1">
                    <mxGeometry width="50" height="50" relative="1" as="geometry">
                        <mxPoint x="470" y="300" as="sourcePoint"/>
                        <mxPoint x="490" y="300" as="targetPoint"/>
                    </mxGeometry>
                </mxCell>
                <mxCell id="31" value="&lt;font color=&quot;#000000&quot;&gt;z&lt;span style=&quot;font-size: 10px;&quot;&gt;&lt;sub&gt;0&lt;/sub&gt;&lt;/span&gt;&lt;/font&gt;" style="whiteSpace=wrap;html=1;aspect=fixed;fillColor=#f5f5f5;strokeColor=#666666;fontColor=#333333;" parent="1" vertex="1">
                    <mxGeometry x="518.88" y="360.55" width="20" height="20" as="geometry"/>
                </mxCell>
                <mxCell id="32" value="μ&lt;span style=&quot;font-size: 10px;&quot;&gt;&lt;sub&gt;0&lt;/sub&gt;&lt;/span&gt;" style="whiteSpace=wrap;html=1;aspect=fixed;fillColor=#f5f5f5;strokeColor=#666666;fontColor=#333333;" parent="1" vertex="1">
                    <mxGeometry x="504.88" y="408.32" width="20" height="20" as="geometry"/>
                </mxCell>
                <mxCell id="33" value="σ&lt;span style=&quot;font-size: 10px;&quot;&gt;&lt;sub&gt;0&lt;/sub&gt;&lt;/span&gt;" style="whiteSpace=wrap;html=1;aspect=fixed;fillColor=#f5f5f5;strokeColor=#666666;fontColor=#333333;" parent="1" vertex="1">
                    <mxGeometry x="534.88" y="408.31999999999994" width="20" height="20" as="geometry"/>
                </mxCell>
                <mxCell id="68" value="" style="endArrow=classic;html=1;" parent="1" edge="1">
                    <mxGeometry width="50" height="50" relative="1" as="geometry">
                        <mxPoint x="529" y="270.55" as="sourcePoint"/>
                        <mxPoint x="529" y="250.55" as="targetPoint"/>
                    </mxGeometry>
                </mxCell>
                <mxCell id="72" value="" style="endArrow=classic;html=1;" parent="1" edge="1">
                    <mxGeometry width="50" height="50" relative="1" as="geometry">
                        <mxPoint x="530" y="350.55" as="sourcePoint"/>
                        <mxPoint x="530" y="330.55" as="targetPoint"/>
                    </mxGeometry>
                </mxCell>
                <mxCell id="76" value="" style="shape=curlyBracket;whiteSpace=wrap;html=1;rounded=1;labelPosition=left;verticalLabelPosition=middle;align=right;verticalAlign=middle;fontColor=#000000;rotation=-90;" parent="1" vertex="1">
                    <mxGeometry x="636.85" y="305.45" width="6.3" height="28.32" as="geometry"/>
                </mxCell>
                <mxCell id="78" value="&lt;font style=&quot;font-size: 12px;&quot;&gt;Sample from Task Posterior q(z&lt;/font&gt;&lt;font style=&quot;font-size: 10px;&quot;&gt;&lt;sub&gt;N&lt;/sub&gt;&lt;/font&gt;&lt;font style=&quot;&quot;&gt;|S)&lt;/font&gt;" style="text;html=1;strokeColor=none;fillColor=none;align=center;verticalAlign=middle;whiteSpace=wrap;rounded=0;fontColor=#000000;fontSize=12;" parent="1" vertex="1">
                    <mxGeometry x="610" y="328.27" width="60" height="61.73" as="geometry"/>
                </mxCell>
                <mxCell id="80" value="&lt;font color=&quot;#000000&quot;&gt;x&lt;sub&gt;i&lt;/sub&gt;&lt;/font&gt;" style="whiteSpace=wrap;html=1;aspect=fixed;fillColor=#dae8fc;strokeColor=#6c8ebf;" parent="1" vertex="1">
                    <mxGeometry x="229.99999999999994" y="328.58000000000004" width="20" height="20" as="geometry"/>
                </mxCell>
                <mxCell id="81" value="&lt;font color=&quot;#000000&quot;&gt;y&lt;sub&gt;i&lt;/sub&gt;&lt;/font&gt;" style="whiteSpace=wrap;html=1;aspect=fixed;fillColor=#f8cecc;strokeColor=#b85450;" parent="1" vertex="1">
                    <mxGeometry x="259.99999999999994" y="328.58" width="20" height="20" as="geometry"/>
                </mxCell>
                <mxCell id="82" value="&lt;font color=&quot;#000000&quot;&gt;x&lt;sub&gt;i&lt;/sub&gt;&lt;/font&gt;" style="whiteSpace=wrap;html=1;aspect=fixed;fillColor=#dae8fc;strokeColor=#6c8ebf;" parent="1" vertex="1">
                    <mxGeometry x="230" y="250.26000000000005" width="20" height="20" as="geometry"/>
                </mxCell>
                <mxCell id="83" value="&lt;font color=&quot;#000000&quot;&gt;y&lt;sub&gt;i&lt;/sub&gt;&lt;/font&gt;" style="whiteSpace=wrap;html=1;aspect=fixed;fillColor=#f8cecc;strokeColor=#b85450;" parent="1" vertex="1">
                    <mxGeometry x="260" y="250.26" width="20" height="20" as="geometry"/>
                </mxCell>
                <mxCell id="84" value="" style="line;strokeWidth=2;direction=south;html=1;dashed=1;dashPattern=1 4;rotation=0;" parent="1" vertex="1">
                    <mxGeometry x="235" y="283.23999999999995" width="10" height="36" as="geometry"/>
                </mxCell>
                <mxCell id="99" value="" style="line;strokeWidth=2;direction=south;html=1;dashed=1;dashPattern=1 4;rotation=-180;" parent="1" vertex="1">
                    <mxGeometry x="264.99999999999994" y="281.24000000000007" width="10" height="36" as="geometry"/>
                </mxCell>
                <mxCell id="100" value="" style="shape=curlyBracket;whiteSpace=wrap;html=1;rounded=1;labelPosition=left;verticalLabelPosition=middle;align=right;verticalAlign=middle;fontColor=#000000;rotation=-180;" parent="1" vertex="1">
                    <mxGeometry x="290" y="239.14000000000001" width="18.15" height="120.57" as="geometry"/>
                </mxCell>
                <mxCell id="101" value="Set S" style="text;html=1;strokeColor=none;fillColor=none;align=center;verticalAlign=middle;whiteSpace=wrap;rounded=0;fontColor=#000000;" parent="1" vertex="1">
                    <mxGeometry x="170" y="287.24" width="60" height="30" as="geometry"/>
                </mxCell>
                <mxCell id="102" value="&lt;font color=&quot;#000000&quot;&gt;r&lt;/font&gt;" style="whiteSpace=wrap;html=1;aspect=fixed;fillColor=#ffe6cc;strokeColor=#d79b00;" parent="1" vertex="1">
                    <mxGeometry x="439.99999999999994" y="289.75999999999993" width="19.33" height="19.33" as="geometry"/>
                </mxCell>
                <mxCell id="105" value="" style="endArrow=classic;html=1;" parent="1" edge="1">
                    <mxGeometry width="50" height="50" relative="1" as="geometry">
                        <mxPoint x="720" y="249.43" as="sourcePoint"/>
                        <mxPoint x="720" y="269.43" as="targetPoint"/>
                    </mxGeometry>
                </mxCell>
                <mxCell id="106" value="&lt;font color=&quot;#000000&quot;&gt;x&lt;/font&gt;" style="whiteSpace=wrap;html=1;aspect=fixed;fillColor=#dae8fc;strokeColor=#6c8ebf;gradientColor=#7ea6e0;" parent="1" vertex="1">
                    <mxGeometry x="710" y="219.43000000000006" width="20" height="20" as="geometry"/>
                </mxCell>
                <mxCell id="107" value="Decoder" style="rounded=0;whiteSpace=wrap;html=1;" parent="1" vertex="1">
                    <mxGeometry x="690" y="279.43" width="60" height="40" as="geometry"/>
                </mxCell>
                <mxCell id="108" value="μ&lt;sub&gt;y&lt;/sub&gt;" style="whiteSpace=wrap;html=1;aspect=fixed;fillColor=#f8cecc;strokeColor=#b85450;gradientColor=#ea6b66;fontColor=#000000;" parent="1" vertex="1">
                    <mxGeometry x="790" y="271.43" width="20" height="20" as="geometry"/>
                </mxCell>
                <mxCell id="109" value="σ&lt;sub&gt;y&lt;/sub&gt;" style="whiteSpace=wrap;html=1;aspect=fixed;fillColor=#f8cecc;strokeColor=#b85450;gradientColor=#ea6b66;fontColor=#000000;" parent="1" vertex="1">
                    <mxGeometry x="790" y="302.64" width="20" height="20" as="geometry"/>
                </mxCell>
                <mxCell id="110" value="" style="endArrow=classic;html=1;" parent="1" edge="1">
                    <mxGeometry width="50" height="50" relative="1" as="geometry">
                        <mxPoint x="760" y="298.43" as="sourcePoint"/>
                        <mxPoint x="780" y="298.43" as="targetPoint"/>
                    </mxGeometry>
                </mxCell>
                <mxCell id="114" value="" style="shape=curlyBracket;whiteSpace=wrap;html=1;rounded=1;labelPosition=left;verticalLabelPosition=middle;align=right;verticalAlign=middle;fontColor=#000000;rotation=-90;" parent="1" vertex="1">
                    <mxGeometry x="796.89" y="320.54" width="6.3" height="25" as="geometry"/>
                </mxCell>
                <mxCell id="115" value="&lt;font style=&quot;font-size: 12px;&quot;&gt;Likelihood p(y|x,z)&lt;/font&gt;" style="text;html=1;strokeColor=none;fillColor=none;align=center;verticalAlign=middle;whiteSpace=wrap;rounded=0;fontColor=#000000;fontSize=12;" parent="1" vertex="1">
                    <mxGeometry x="770.0400000000001" y="339.38000000000005" width="60" height="45.57" as="geometry"/>
                </mxCell>
                <mxCell id="119" value="&lt;font style=&quot;font-size: 25px;&quot;&gt;∼&lt;/font&gt;" style="text;html=1;strokeColor=none;fillColor=none;align=center;verticalAlign=middle;whiteSpace=wrap;rounded=0;fontSize=12;rotation=-90;" parent="1" vertex="1">
                    <mxGeometry x="508.88000000000005" y="389.11" width="34.56" height="10.21" as="geometry"/>
                </mxCell>
                <mxCell id="122" value="" style="endArrow=classic;html=1;" parent="1" edge="1">
                    <mxGeometry width="50" height="50" relative="1" as="geometry">
                        <mxPoint x="580" y="300" as="sourcePoint"/>
                        <mxPoint x="620" y="300" as="targetPoint"/>
                    </mxGeometry>
                </mxCell>
                <mxCell id="123" value="" style="endArrow=classic;html=1;" edge="1" parent="1">
                    <mxGeometry width="50" height="50" relative="1" as="geometry">
                        <mxPoint x="410" y="299.74" as="sourcePoint"/>
                        <mxPoint x="430" y="299.74" as="targetPoint"/>
                    </mxGeometry>
                </mxCell>
                <mxCell id="124" value="Set Encoder" style="rounded=0;whiteSpace=wrap;html=1;" vertex="1" parent="1">
                    <mxGeometry x="340" y="279.42" width="60" height="40" as="geometry"/>
                </mxCell>
                <mxCell id="125" value="" style="endArrow=classic;html=1;exitX=0.243;exitY=0.499;exitDx=0;exitDy=0;exitPerimeter=0;" edge="1" parent="1" source="100">
                    <mxGeometry width="50" height="50" relative="1" as="geometry">
                        <mxPoint x="88.76000000000005" y="333.76" as="sourcePoint"/>
                        <mxPoint x="330" y="299.99" as="targetPoint"/>
                    </mxGeometry>
                </mxCell>
                <mxCell id="127" value="z&lt;sub&gt;n&lt;/sub&gt;" style="whiteSpace=wrap;html=1;aspect=fixed;fillColor=#e1d5e7;strokeColor=#9673a6;fontColor=#000000;" vertex="1" parent="1">
                    <mxGeometry x="518.88" y="170.55" width="20" height="20" as="geometry"/>
                </mxCell>
                <mxCell id="128" value="&lt;font style=&quot;font-size: 25px;&quot;&gt;∼&lt;/font&gt;" style="text;html=1;strokeColor=none;fillColor=none;align=center;verticalAlign=middle;whiteSpace=wrap;rounded=0;fontSize=12;rotation=-90;" vertex="1" parent="1">
                    <mxGeometry x="508.88000000000005" y="200.55" width="34.56" height="10.21" as="geometry"/>
                </mxCell>
                <mxCell id="129" value="" style="endArrow=classic;html=1;" edge="1" parent="1">
                    <mxGeometry width="50" height="50" relative="1" as="geometry">
                        <mxPoint x="550" y="180.55" as="sourcePoint"/>
                        <mxPoint x="540" y="330.55" as="targetPoint"/>
                        <Array as="points">
                            <mxPoint x="580" y="230.55"/>
                            <mxPoint x="580" y="310.55"/>
                            <mxPoint x="560" y="350.55"/>
                        </Array>
                    </mxGeometry>
                </mxCell>
                <mxCell id="130" value="N steps" style="text;html=1;strokeColor=none;fillColor=none;align=center;verticalAlign=middle;whiteSpace=wrap;rounded=0;rotation=60;" vertex="1" parent="1">
                    <mxGeometry x="524.8800000000001" y="188.65999999999997" width="96.48" height="22.1" as="geometry"/>
                </mxCell>
            </root>
        </mxGraphModel>
    </diagram>
</mxfile>